<svg version="1.1" viewBox="0.0 0.0 512.0 512.0" fill="none" stroke="none" stroke-linecap="square" stroke-miterlimit="10" xmlns:xlink="http://www.w3.org/1999/xlink" xmlns="http://www.w3.org/2000/svg"><clipPath id="p.0"><path d="m0 0l512.0 0l0 512.0l-512.0 0l0 -512.0z" clip-rule="nonzero"/></clipPath><g clip-path="url(#p.0)"><path fill="#000000" fill-opacity="0.0" d="m0 0l512.0 0l0 512.0l-512.0 0z" fill-rule="evenodd"/><path fill="#1e3859" d="m-6.8267717 -3.4120734l526.33075 0l0 518.1417l-526.33075 0z" fill-rule="evenodd"/><path stroke="#1e3859" stroke-width="1.0" stroke-linejoin="round" stroke-linecap="butt" d="m-6.8267717 -3.4120734l526.33075 0l0 518.1417l-526.33075 0z" fill-rule="evenodd"/><path fill="#1e3859" d="m4.8780484 257.61942l0 0c0 -139.17575 112.82424 -252.0 252.0 -252.0l0 0c66.834564 0 130.93173 26.549923 178.19092 73.80909c47.259155 47.25917 73.80908 111.35635 73.80908 178.1909l0 0c0 139.17575 -112.82425 252.0 -252.0 252.0l0 0c-139.17575 0 -252.0 -112.82425 -252.0 -252.0z" fill-rule="evenodd"/><path stroke="#1e3859" stroke-width="1.0" stroke-linejoin="round" stroke-linecap="butt" d="m4.8780484 257.61942l0 0c0 -139.17575 112.82424 -252.0 252.0 -252.0l0 0c66.834564 0 130.93173 26.549923 178.19092 73.80909c47.259155 47.25917 73.80908 111.35635 73.80908 178.1909l0 0c0 139.17575 -112.82425 252.0 -252.0 252.0l0 0c-139.17575 0 -252.0 -112.82425 -252.0 -252.0z" fill-rule="evenodd"/><path fill="#000000" fill-opacity="0.0" d="m89.50249 -73.68167l211.05513 0l0 665.7953l-211.05513 0z" fill-rule="evenodd"/><path fill="#ffffff" d="m138.86186 447.31833l87.765625 0q27.34375 -0.265625 50.906235 -6.515625q23.578125 -6.25 42.328125 -17.96875q17.703125 -11.1875 32.015625 -27.078125q14.328125 -15.890625 23.703125 -35.421875q9.109375 -18.75 13.921875 -41.140625q4.828125 -22.390625 4.828125 -47.390625l0 -27.875q-0.265625 -26.03125 -5.34375 -48.9375q-5.078125 -22.921875 -14.703125 -42.203125q-10.671875 -22.65625 -28.515625 -39.96875q-17.84375 -17.3125 -41.015625 -28.0q-16.671875 -7.8125 -36.328125 -12.109375q-19.656235 -4.296875 -41.79686 -4.546875l-87.765625 0l0 379.15625zm48.96875 -339.57812l38.796875 0q17.96875 0.265625 33.062485 4.046875q15.109375 3.765625 27.359375 10.53125q17.1875 9.125 29.03125 23.84375q11.84375 14.703125 18.875 32.9375q5.46875 14.046875 8.203125 30.328125q2.734375 16.28125 3.0 33.984375l0 28.390625q-0.265625 17.4375 -2.875 33.453125q-2.59375 16.015625 -7.796875 29.828125q-6.0 16.921875 -16.28125 30.59375q-10.28125 13.671875 -24.34375 23.046875q-13.28125 9.109375 -30.34375 14.0625q-17.062485 4.953125 -37.89061 5.203125l-38.796875 0l0 -300.25z" fill-rule="nonzero"/></g></svg>